<?xml version="1.0" encoding="UTF-8" standalone="no"?>
<!DOCTYPE svg PUBLIC "-//W3C//DTD SVG 1.1//EN"
 "http://www.w3.org/Graphics/SVG/1.1/DTD/svg11.dtd">
<!-- Generated by graphviz version 2.36.0 (20140111.2315)
 -->
<!-- Title: G Pages: 1 -->
<svg width="1110pt" height="1332pt"
 viewBox="0.00 0.00 1110.00 1332.00" xmlns="http://www.w3.org/2000/svg" xmlns:xlink="http://www.w3.org/1999/xlink">
<g id="graph0" class="graph" transform="scale(1 1) rotate(0) translate(4 1328)">
<title>G</title>
<polygon fill="white" stroke="none" points="-4,4 -4,-1328 1106,-1328 1106,4 -4,4"/>
<g id="clust1" class="cluster"><title>cluster_Global</title>
<path fill="none" stroke="gray" d="M497,-260C497,-260 1082,-260 1082,-260 1088,-260 1094,-266 1094,-272 1094,-272 1094,-1304 1094,-1304 1094,-1310 1088,-1316 1082,-1316 1082,-1316 497,-1316 497,-1316 491,-1316 485,-1310 485,-1304 485,-1304 485,-272 485,-272 485,-266 491,-260 497,-260"/>
<text text-anchor="middle" x="789.5" y="-1303.2" font-family="Times,serif" font-size="11.00" fill="gray">Global</text>
</g>
<g id="clust2" class="cluster"><title>cluster_\App</title>
<path fill="none" stroke="gray" d="M505,-268C505,-268 1074,-268 1074,-268 1080,-268 1086,-274 1086,-280 1086,-280 1086,-1276 1086,-1276 1086,-1282 1080,-1288 1074,-1288 1074,-1288 505,-1288 505,-1288 499,-1288 493,-1282 493,-1276 493,-1276 493,-280 493,-280 493,-274 499,-268 505,-268"/>
<text text-anchor="middle" x="789.5" y="-1275.2" font-family="Times,serif" font-size="11.00" fill="gray">App</text>
</g>
<g id="clust3" class="cluster"><title>cluster_\App\Forms</title>
<path fill="none" stroke="gray" d="M909,-570C909,-570 1019,-570 1019,-570 1025,-570 1031,-576 1031,-582 1031,-582 1031,-684 1031,-684 1031,-690 1025,-696 1019,-696 1019,-696 909,-696 909,-696 903,-696 897,-690 897,-684 897,-684 897,-582 897,-582 897,-576 903,-570 909,-570"/>
<text text-anchor="middle" x="964" y="-683.2" font-family="Times,serif" font-size="11.00" fill="gray">Forms</text>
</g>
<g id="clust4" class="cluster"><title>cluster_\App\Model</title>
<path fill="none" stroke="gray" d="M885,-436C885,-436 1043,-436 1043,-436 1049,-436 1055,-442 1055,-448 1055,-448 1055,-550 1055,-550 1055,-556 1049,-562 1043,-562 1043,-562 885,-562 885,-562 879,-562 873,-556 873,-550 873,-550 873,-448 873,-448 873,-442 879,-436 885,-436"/>
<text text-anchor="middle" x="964" y="-549.2" font-family="Times,serif" font-size="11.00" fill="gray">Model</text>
</g>
<g id="clust5" class="cluster"><title>cluster_\App\Parser</title>
<path fill="none" stroke="gray" d="M533,-1134C533,-1134 1012,-1134 1012,-1134 1018,-1134 1024,-1140 1024,-1146 1024,-1146 1024,-1248 1024,-1248 1024,-1254 1018,-1260 1012,-1260 1012,-1260 533,-1260 533,-1260 527,-1260 521,-1254 521,-1248 521,-1248 521,-1146 521,-1146 521,-1140 527,-1134 533,-1134"/>
<text text-anchor="middle" x="772.5" y="-1247.2" font-family="Times,serif" font-size="11.00" fill="gray">Parser</text>
</g>
<g id="clust6" class="cluster"><title>cluster_\App\Presenters</title>
<path fill="none" stroke="gray" d="M537,-892C537,-892 1026,-892 1026,-892 1032,-892 1038,-898 1038,-904 1038,-904 1038,-1114 1038,-1114 1038,-1120 1032,-1126 1026,-1126 1026,-1126 537,-1126 537,-1126 531,-1126 525,-1120 525,-1114 525,-1114 525,-904 525,-904 525,-898 531,-892 537,-892"/>
<text text-anchor="middle" x="781.5" y="-1113.2" font-family="Times,serif" font-size="11.00" fill="gray">Presenters</text>
</g>
<g id="clust7" class="cluster"><title>cluster_\App\Exception</title>
<path fill="none" stroke="gray" d="M513,-704C513,-704 1066,-704 1066,-704 1072,-704 1078,-710 1078,-716 1078,-716 1078,-872 1078,-872 1078,-878 1072,-884 1066,-884 1066,-884 513,-884 513,-884 507,-884 501,-878 501,-872 501,-872 501,-716 501,-716 501,-710 507,-704 513,-704"/>
<text text-anchor="middle" x="789.5" y="-871.2" font-family="Times,serif" font-size="11.00" fill="gray">Exception</text>
</g>
<g id="clust8" class="cluster"><title>cluster_\App\Console</title>
<path fill="none" stroke="gray" d="M904,-320C904,-320 1024,-320 1024,-320 1030,-320 1036,-326 1036,-332 1036,-332 1036,-416 1036,-416 1036,-422 1030,-428 1024,-428 1024,-428 904,-428 904,-428 898,-428 892,-422 892,-416 892,-416 892,-332 892,-332 892,-326 898,-320 904,-320"/>
<text text-anchor="middle" x="964" y="-415.2" font-family="Times,serif" font-size="11.00" fill="gray">Console</text>
</g>
<g id="clust9" class="cluster"><title>cluster_\App\Console\Command</title>
<path fill="none" stroke="gray" d="M912,-328C912,-328 1016,-328 1016,-328 1022,-328 1028,-334 1028,-340 1028,-340 1028,-388 1028,-388 1028,-394 1022,-400 1016,-400 1016,-400 912,-400 912,-400 906,-400 900,-394 900,-388 900,-388 900,-340 900,-340 900,-334 906,-328 912,-328"/>
<text text-anchor="middle" x="964" y="-387.2" font-family="Times,serif" font-size="11.00" fill="gray">Command</text>
</g>
<!-- \\App\\Forms\\FormFactory -->
<g id="node1" class="node"><title>\\App\\Forms\\FormFactory</title>
<polygon fill="none" stroke="black" points="1009.5,-668 918.5,-668 918.5,-632 1009.5,-632 1009.5,-668"/>
<text text-anchor="middle" x="964" y="-647.2" font-family="Courier,monospace" font-size="11.00">FormFactory</text>
</g>
<!-- \\Nette\\Object -->
<g id="node19" class="node"><title>\\Nette\\Object</title>
<ellipse fill="none" stroke="black" cx="585" cy="-180" rx="57.6901" ry="18"/>
<text text-anchor="middle" x="585" y="-176.3" font-family="Times,serif" font-size="14.00" fill="gray">\Nette\Object</text>
</g>
<!-- \\App\\Forms\\FormFactory&#45;&gt;\\Nette\\Object -->
<g id="edge1" class="edge"><title>\\App\\Forms\\FormFactory&#45;&gt;\\Nette\\Object</title>
<path fill="none" stroke="black" d="M918.288,-649.256C897.146,-646.511 873.253,-639.53 858,-623 730.753,-485.101 921.124,-337.19 786,-207 749.718,-172.042 691.091,-167.838 646.671,-170.868"/>
<polygon fill="none" stroke="black" points="646.247,-167.391 636.566,-171.696 646.819,-174.367 646.247,-167.391"/>
</g>
<!-- \\App\\Forms\\SignFormFactory -->
<g id="node2" class="node"><title>\\App\\Forms\\SignFormFactory</title>
<polygon fill="none" stroke="black" points="1023,-614 905,-614 905,-578 1023,-578 1023,-614"/>
<text text-anchor="middle" x="964" y="-593.2" font-family="Courier,monospace" font-size="11.00">SignFormFactory</text>
</g>
<!-- \\App\\Forms\\SignFormFactory&#45;&gt;\\Nette\\Object -->
<g id="edge10" class="edge"><title>\\App\\Forms\\SignFormFactory&#45;&gt;\\Nette\\Object</title>
<path fill="none" stroke="black" d="M904.866,-590.967C887.637,-586.701 870.149,-579.167 858,-566 747.646,-446.401 904.678,-318.344 786,-207 749.375,-172.638 691.065,-168.291 646.834,-171.119"/>
<polygon fill="none" stroke="black" points="646.471,-167.637 636.771,-171.9 647.012,-174.616 646.471,-167.637"/>
</g>
<!-- \\App\\Model\\UserManager -->
<g id="node3" class="node"><title>\\App\\Model\\UserManager</title>
<polygon fill="none" stroke="black" points="1009.5,-534 918.5,-534 918.5,-498 1009.5,-498 1009.5,-534"/>
<text text-anchor="middle" x="964" y="-513.2" font-family="Courier,monospace" font-size="11.00">UserManager</text>
</g>
<!-- \\App\\Model\\UserManager&#45;&gt;\\Nette\\Object -->
<g id="edge2" class="edge"><title>\\App\\Model\\UserManager&#45;&gt;\\Nette\\Object</title>
<path fill="none" stroke="black" d="M918.304,-514.661C897.426,-511.742 873.758,-504.785 858,-489 766.611,-397.455 882.606,-293.021 786,-207 748.936,-173.997 691.659,-169.249 647.883,-171.593"/>
<polygon fill="none" stroke="black" points="647.375,-168.119 637.633,-172.283 647.845,-175.103 647.375,-168.119"/>
</g>
<!-- \\Nette\\Security\\IAuthenticator -->
<g id="node20" class="node"><title>\\Nette\\Security\\IAuthenticator</title>
<ellipse fill="none" stroke="black" cx="585" cy="-126" rx="117.779" ry="18"/>
<text text-anchor="middle" x="585" y="-122.3" font-family="Times,serif" font-size="14.00" fill="gray">\Nette\Security\IAuthenticator</text>
</g>
<!-- \\App\\Model\\UserManager&#45;&gt;\\Nette\\Security\\IAuthenticator -->
<g id="edge3" class="edge"><title>\\App\\Model\\UserManager&#45;&gt;\\Nette\\Security\\IAuthenticator</title>
<path fill="none" stroke="black" stroke-dasharray="1,5" d="M918.301,-514.96C897.292,-512.126 873.513,-505.156 858,-489 752.222,-378.839 898.063,-256.76 786,-153 762.396,-131.144 729.997,-121.493 698.148,-118.102"/>
<polygon fill="none" stroke="black" points="698.103,-114.586 687.839,-117.214 697.502,-121.56 698.103,-114.586"/>
</g>
<!-- \\App\\Model\\DuplicateNameException -->
<g id="node4" class="node"><title>\\App\\Model\\DuplicateNameException</title>
<polygon fill="none" stroke="black" points="1046.5,-480 881.5,-480 881.5,-444 1046.5,-444 1046.5,-480"/>
<text text-anchor="middle" x="964" y="-459.2" font-family="Courier,monospace" font-size="11.00">DuplicateNameException</text>
</g>
<!-- \\Exception -->
<g id="node21" class="node"><title>\\Exception</title>
<ellipse fill="none" stroke="black" cx="585" cy="-72" rx="48.9926" ry="18"/>
<text text-anchor="middle" x="585" y="-68.3" font-family="Times,serif" font-size="14.00" fill="gray">\Exception</text>
</g>
<!-- \\App\\Model\\DuplicateNameException&#45;&gt;\\Exception -->
<g id="edge4" class="edge"><title>\\App\\Model\\DuplicateNameException&#45;&gt;\\Exception</title>
<path fill="none" stroke="black" d="M911.383,-443.969C892.02,-434.798 871.467,-421.753 858,-404 773.823,-293.034 889.175,-192.564 786,-99 746.992,-63.6262 684.853,-60.4811 640.187,-63.915"/>
<polygon fill="none" stroke="black" points="639.732,-60.4417 630.086,-64.8251 640.36,-67.4135 639.732,-60.4417"/>
</g>
<!-- \\App\\Parser\\BaseDataSource -->
<g id="node5" class="node"><title>\\App\\Parser\\BaseDataSource</title>
<polygon fill="none" stroke="black" points="640.5,-1232 529.5,-1232 529.5,-1196 640.5,-1196 640.5,-1232"/>
<text text-anchor="start" x="551" y="-1217.2" font-family="Courier,monospace" font-size="11.00">«abstract»</text>
<text text-anchor="start" x="537.5" y="-1205.2" font-family="Courier,monospace" font-size="11.00">BaseDataSource</text>
</g>
<!-- \\App\\Parser\\RssDataSource -->
<g id="node6" class="node"><title>\\App\\Parser\\RssDataSource</title>
<polygon fill="none" stroke="black" points="1016,-1232 912,-1232 912,-1196 1016,-1196 1016,-1232"/>
<text text-anchor="middle" x="964" y="-1211.2" font-family="Courier,monospace" font-size="11.00">RssDataSource</text>
</g>
<!-- \\App\\Parser\\RssDataSource&#45;&gt;\\App\\Parser\\BaseDataSource -->
<g id="edge7" class="edge"><title>\\App\\Parser\\RssDataSource&#45;&gt;\\App\\Parser\\BaseDataSource</title>
<path fill="none" stroke="black" d="M911.764,-1214C844.081,-1214 724.83,-1214 650.913,-1214"/>
<polygon fill="none" stroke="black" points="650.794,-1210.5 640.794,-1214 650.794,-1217.5 650.794,-1210.5"/>
</g>
<!-- \\App\\Parser\\Parser -->
<g id="node7" class="node"><title>\\App\\Parser\\Parser</title>
<polygon fill="none" stroke="black" points="992.5,-1178 935.5,-1178 935.5,-1142 992.5,-1142 992.5,-1178"/>
<text text-anchor="middle" x="964" y="-1157.2" font-family="Courier,monospace" font-size="11.00">Parser</text>
</g>
<!-- \\App\\Presenters\\HomepagePresenter -->
<g id="node8" class="node"><title>\\App\\Presenters\\HomepagePresenter</title>
<polygon fill="none" stroke="black" points="1029.5,-990 898.5,-990 898.5,-954 1029.5,-954 1029.5,-990"/>
<text text-anchor="middle" x="964" y="-969.2" font-family="Courier,monospace" font-size="11.00">HomepagePresenter</text>
</g>
<!-- \\App\\Presenters\\BasePresenter -->
<g id="node11" class="node"><title>\\App\\Presenters\\BasePresenter</title>
<polygon fill="none" stroke="black" points="637,-1044 533,-1044 533,-1008 637,-1008 637,-1044"/>
<text text-anchor="start" x="551" y="-1029.2" font-family="Courier,monospace" font-size="11.00">«abstract»</text>
<text text-anchor="start" x="541" y="-1017.2" font-family="Courier,monospace" font-size="11.00">BasePresenter</text>
</g>
<!-- \\App\\Presenters\\HomepagePresenter&#45;&gt;\\App\\Presenters\\BasePresenter -->
<g id="edge5" class="edge"><title>\\App\\Presenters\\HomepagePresenter&#45;&gt;\\App\\Presenters\\BasePresenter</title>
<path fill="none" stroke="black" d="M898.191,-981.283C827.905,-991.351 716.538,-1007.3 647.552,-1017.18"/>
<polygon fill="none" stroke="black" points="646.677,-1013.77 637.275,-1018.66 647.67,-1020.7 646.677,-1013.77"/>
</g>
<!-- \\App\\Presenters\\SignPresenter -->
<g id="node9" class="node"><title>\\App\\Presenters\\SignPresenter</title>
<polygon fill="none" stroke="black" points="1016,-1098 912,-1098 912,-1062 1016,-1062 1016,-1098"/>
<text text-anchor="middle" x="964" y="-1077.2" font-family="Courier,monospace" font-size="11.00">SignPresenter</text>
</g>
<!-- \\App\\Presenters\\SignPresenter&#45;&gt;\\App\\Presenters\\BasePresenter -->
<g id="edge6" class="edge"><title>\\App\\Presenters\\SignPresenter&#45;&gt;\\App\\Presenters\\BasePresenter</title>
<path fill="none" stroke="black" d="M911.764,-1072.66C842.927,-1062.8 720.749,-1045.3 647.173,-1034.76"/>
<polygon fill="none" stroke="black" points="647.52,-1031.28 637.124,-1033.32 646.527,-1038.21 647.52,-1031.28"/>
</g>
<!-- \\App\\Presenters\\Error4xxPresenter -->
<g id="node10" class="node"><title>\\App\\Presenters\\Error4xxPresenter</title>
<polygon fill="none" stroke="black" points="1029.5,-1044 898.5,-1044 898.5,-1008 1029.5,-1008 1029.5,-1044"/>
<text text-anchor="middle" x="964" y="-1023.2" font-family="Courier,monospace" font-size="11.00">Error4xxPresenter</text>
</g>
<!-- \\App\\Presenters\\Error4xxPresenter&#45;&gt;\\App\\Presenters\\BasePresenter -->
<g id="edge12" class="edge"><title>\\App\\Presenters\\Error4xxPresenter&#45;&gt;\\App\\Presenters\\BasePresenter</title>
<path fill="none" stroke="black" d="M898.191,-1026C827.905,-1026 716.538,-1026 647.552,-1026"/>
<polygon fill="none" stroke="black" points="647.275,-1022.5 637.275,-1026 647.275,-1029.5 647.275,-1022.5"/>
</g>
<!-- \\Nette\\Application\\UI\\Presenter -->
<g id="node22" class="node"><title>\\Nette\\Application\\UI\\Presenter</title>
<ellipse fill="none" stroke="black" cx="156" cy="-1026" rx="122.678" ry="18"/>
<text text-anchor="middle" x="156" y="-1022.3" font-family="Times,serif" font-size="14.00" fill="gray">\Nette\Application\UI\Presenter</text>
</g>
<!-- \\App\\Presenters\\BasePresenter&#45;&gt;\\Nette\\Application\\UI\\Presenter -->
<g id="edge13" class="edge"><title>\\App\\Presenters\\BasePresenter&#45;&gt;\\Nette\\Application\\UI\\Presenter</title>
<path fill="none" stroke="black" d="M532.918,-1026C473.098,-1026 371.706,-1026 289.288,-1026"/>
<polygon fill="none" stroke="black" points="289.079,-1022.5 279.079,-1026 289.079,-1029.5 289.079,-1022.5"/>
</g>
<!-- \\App\\Presenters\\ErrorPresenter -->
<g id="node12" class="node"><title>\\App\\Presenters\\ErrorPresenter</title>
<polygon fill="none" stroke="black" points="1019.5,-936 908.5,-936 908.5,-900 1019.5,-900 1019.5,-936"/>
<text text-anchor="middle" x="964" y="-915.2" font-family="Courier,monospace" font-size="11.00">ErrorPresenter</text>
</g>
<!-- \\App\\Presenters\\ErrorPresenter&#45;&gt;\\Nette\\Object -->
<g id="edge15" class="edge"><title>\\App\\Presenters\\ErrorPresenter&#45;&gt;\\Nette\\Object</title>
<path fill="none" stroke="black" d="M908.231,-914.564C889.638,-910.573 870.442,-902.804 858,-888 760.091,-771.503 892.042,-316.146 786,-207 750.552,-170.514 690.981,-166.729 646.051,-170.289"/>
<polygon fill="none" stroke="black" points="645.468,-166.828 635.837,-171.242 646.119,-173.798 645.468,-166.828"/>
</g>
<!-- \\Nette\\Application\\IPresenter -->
<g id="node24" class="node"><title>\\Nette\\Application\\IPresenter</title>
<ellipse fill="none" stroke="black" cx="585" cy="-234" rx="114.28" ry="18"/>
<text text-anchor="middle" x="585" y="-230.3" font-family="Times,serif" font-size="14.00" fill="gray">\Nette\Application\IPresenter</text>
</g>
<!-- \\App\\Presenters\\ErrorPresenter&#45;&gt;\\Nette\\Application\\IPresenter -->
<g id="edge16" class="edge"><title>\\App\\Presenters\\ErrorPresenter&#45;&gt;\\Nette\\Application\\IPresenter</title>
<path fill="none" stroke="black" stroke-dasharray="1,5" d="M908.307,-912.231C890.487,-907.964 871.769,-900.615 858,-888 792.028,-827.558 819.651,-782.905 786,-700 717.851,-532.102 630.006,-332.962 598.186,-261.343"/>
<polygon fill="none" stroke="black" points="601.337,-259.815 594.075,-252.1 594.941,-262.659 601.337,-259.815"/>
</g>
<!-- \\App\\Exception\\InvalidConfigurationException -->
<g id="node13" class="node"><title>\\App\\Exception\\InvalidConfigurationException</title>
<polygon fill="none" stroke="black" points="1070,-856 858,-856 858,-820 1070,-820 1070,-856"/>
<text text-anchor="middle" x="964" y="-835.2" font-family="Courier,monospace" font-size="11.00">InvalidConfigurationException</text>
</g>
<!-- \\App\\Exception\\ApplicationException -->
<g id="node16" class="node"><title>\\App\\Exception\\ApplicationException</title>
<polygon fill="none" stroke="black" points="661,-802 509,-802 509,-766 661,-766 661,-802"/>
<text text-anchor="middle" x="585" y="-781.2" font-family="Courier,monospace" font-size="11.00">ApplicationException</text>
</g>
<!-- \\App\\Exception\\InvalidConfigurationException&#45;&gt;\\App\\Exception\\ApplicationException -->
<g id="edge8" class="edge"><title>\\App\\Exception\\InvalidConfigurationException&#45;&gt;\\App\\Exception\\ApplicationException</title>
<path fill="none" stroke="black" d="M857.984,-822.958C799.119,-814.526 726.641,-804.145 671.309,-796.219"/>
<polygon fill="none" stroke="black" points="671.579,-792.722 661.184,-794.769 670.587,-799.652 671.579,-792.722"/>
</g>
<!-- \\App\\Exception\\ApplicationLogicException -->
<g id="node14" class="node"><title>\\App\\Exception\\ApplicationLogicException</title>
<polygon fill="none" stroke="black" points="1056.5,-802 871.5,-802 871.5,-766 1056.5,-766 1056.5,-802"/>
<text text-anchor="middle" x="964" y="-781.2" font-family="Courier,monospace" font-size="11.00">ApplicationLogicException</text>
</g>
<!-- \\App\\Exception\\ApplicationLogicException&#45;&gt;\\App\\Exception\\ApplicationException -->
<g id="edge9" class="edge"><title>\\App\\Exception\\ApplicationLogicException&#45;&gt;\\App\\Exception\\ApplicationException</title>
<path fill="none" stroke="black" d="M871.258,-784C810.271,-784 730.745,-784 671.159,-784"/>
<polygon fill="none" stroke="black" points="671.026,-780.5 661.025,-784 671.025,-787.5 671.026,-780.5"/>
</g>
<!-- \\App\\Exception\\DataSourceException -->
<g id="node15" class="node"><title>\\App\\Exception\\DataSourceException</title>
<polygon fill="none" stroke="black" points="1036.5,-748 891.5,-748 891.5,-712 1036.5,-712 1036.5,-748"/>
<text text-anchor="middle" x="964" y="-727.2" font-family="Courier,monospace" font-size="11.00">DataSourceException</text>
</g>
<!-- \\App\\Exception\\DataSourceException&#45;&gt;\\App\\Exception\\ApplicationException -->
<g id="edge11" class="edge"><title>\\App\\Exception\\DataSourceException&#45;&gt;\\App\\Exception\\ApplicationException</title>
<path fill="none" stroke="black" d="M891.202,-740.284C828.512,-749.263 737.432,-762.309 671.094,-771.811"/>
<polygon fill="none" stroke="black" points="670.484,-768.363 661.081,-773.246 671.476,-775.292 670.484,-768.363"/>
</g>
<!-- \\Nette\\Application\\ApplicationException -->
<g id="node23" class="node"><title>\\Nette\\Application\\ApplicationException</title>
<ellipse fill="none" stroke="black" cx="156" cy="-784" rx="155.173" ry="18"/>
<text text-anchor="middle" x="156" y="-780.3" font-family="Times,serif" font-size="14.00" fill="gray">\Nette\Application\ApplicationException</text>
</g>
<!-- \\App\\Exception\\ApplicationException&#45;&gt;\\Nette\\Application\\ApplicationException -->
<g id="edge14" class="edge"><title>\\App\\Exception\\ApplicationException&#45;&gt;\\Nette\\Application\\ApplicationException</title>
<path fill="none" stroke="black" d="M508.644,-784C456.942,-784 386.298,-784 321.888,-784"/>
<polygon fill="none" stroke="black" points="321.608,-780.5 311.608,-784 321.608,-787.5 321.608,-780.5"/>
</g>
<!-- \\App\\Console\\Command\\GetFeedCommand -->
<g id="node17" class="node"><title>\\App\\Console\\Command\\GetFeedCommand</title>
<polygon fill="none" stroke="black" points="1019.5,-372 908.5,-372 908.5,-336 1019.5,-336 1019.5,-372"/>
<text text-anchor="middle" x="964" y="-351.2" font-family="Courier,monospace" font-size="11.00">GetFeedCommand</text>
</g>
<!-- \\Symfony\\Component\\Console\\Command\\Command -->
<g id="node25" class="node"><title>\\Symfony\\Component\\Console\\Command\\Command</title>
<ellipse fill="none" stroke="black" cx="585" cy="-18" rx="200.665" ry="18"/>
<text text-anchor="middle" x="585" y="-14.3" font-family="Times,serif" font-size="14.00" fill="gray">\Symfony\Component\Console\Command\Command</text>
</g>
<!-- \\App\\Console\\Command\\GetFeedCommand&#45;&gt;\\Symfony\\Component\\Console\\Command\\Command -->
<g id="edge17" class="edge"><title>\\App\\Console\\Command\\GetFeedCommand&#45;&gt;\\Symfony\\Component\\Console\\Command\\Command</title>
<path fill="none" stroke="black" d="M908.233,-353.787C890.195,-351.028 871.359,-344.844 858,-332 763.202,-240.853 884.032,-132.659 786,-45 780.434,-40.0225 774.408,-35.6867 768.038,-31.9202"/>
<polygon fill="none" stroke="black" points="769.612,-28.7929 759.149,-27.1301 766.291,-34.9551 769.612,-28.7929"/>
</g>
<!-- \\App\\RouterFactory -->
<g id="node18" class="node"><title>\\App\\RouterFactory</title>
<polygon fill="none" stroke="black" points="1016,-312 912,-312 912,-276 1016,-276 1016,-312"/>
<text text-anchor="middle" x="964" y="-291.2" font-family="Courier,monospace" font-size="11.00">RouterFactory</text>
</g>
</g>
</svg>
